# xmcd
#
# Track frame offsets:
#	150
#	14132
#	30055
#	43057
#	58252
#	84695
#	102390
#	147872
#	164600
#	184520
#	198047
#	212300
#	229347
#	241132
#	254287
#	268217
#
# Disc length: 3833
#
# Revision: 1
# Processed by: cddbd v1.5.1PL0 Copyright (c) Steve Scherf et al.
# Submitted via: CDex 1.50
# Normalized: r0:DSETVAR1,TDELIM( - )
#
DISCID=dc0ef710
DTITLE=Various Artist - All Time Jazz Instrumental Classics
DYEAR=1900
DGENRE=Jazz
TTITLE0=Ben Webster - Tenderly (tenor saxophone)
TTITLE1=Monty Sunshine Quartet - Jacqueline (clarinet)
TTITLE2=Chris Barber and Monty Sunshine Quartet - Lonesome (clarinet and saxophone)
TTITLE3=Wes Montgomery - Tequila (guitar)
TTITLE4=Stan Getz - Desafinado (tenor saxophone)
TTITLE5=Oscar Peterson - The Girl From Ipanema (piano)
TTITLE6=Johnny Hodges with The Billy Strayhorn Septet - Cue's Blue Now (trumpet)
TTITLE7=Bill Evans - Danny Boy (piano)
TTITLE8=Oscar Peterson - By The Time I Get To Phoenix (piano)
TTITLE9=Benny Goodman - It Had To Be You (clarinet)
TTITLE10=Gene Krupa - Disc Jockey Jump (drum)
TTITLE11=Stephane Grappelli - Misty (violin)
TTITLE12=Cal Tjader - Sunset Boulevard (vibraphone)
TTITLE13=Roland Kirk - Alfie (tenor saxophone)
TTITLE14=Billy Butterfield - The Shadow Of Your Smile (trumpet)
TTITLE15=George Shearing - Gymnopedie No.1 (piano)
EXTD=
EXTT0=
EXTT1=
EXTT2=
EXTT3=
EXTT4=
EXTT5=
EXTT6=
EXTT7=
EXTT8=
EXTT9=
EXTT10=
EXTT11=
EXTT12=
EXTT13=
EXTT14=
EXTT15=
PLAYORDER=
